<mxfile host="app.diagrams.net" agent="Mozilla/5.0 (Macintosh; Intel Mac OS X 10_15_7) AppleWebKit/537.36 (KHTML, like Gecko) Chrome/135.0.0.0 Safari/537.36" version="26.3.0">
  <diagram name="第 1 页" id="ZW4sPJRa3Ejy1nbT7zsq">
    <mxGraphModel dx="1394" dy="650" grid="0" gridSize="10" guides="1" tooltips="1" connect="1" arrows="1" fold="1" page="0" pageScale="1" pageWidth="827" pageHeight="1169" math="0" shadow="0">
      <root>
        <mxCell id="0" />
        <mxCell id="1" parent="0" />
        <mxCell id="qwTyniUlubBgsxsKZxgI-17" style="edgeStyle=orthogonalEdgeStyle;rounded=0;orthogonalLoop=1;jettySize=auto;html=1;entryX=1;entryY=0.5;entryDx=0;entryDy=0;exitX=0.5;exitY=0;exitDx=0;exitDy=0;" edge="1" parent="1" source="qwTyniUlubBgsxsKZxgI-14" target="qwTyniUlubBgsxsKZxgI-4">
          <mxGeometry relative="1" as="geometry" />
        </mxCell>
        <mxCell id="qwTyniUlubBgsxsKZxgI-21" value="反馈" style="edgeLabel;html=1;align=center;verticalAlign=middle;resizable=0;points=[];" vertex="1" connectable="0" parent="qwTyniUlubBgsxsKZxgI-17">
          <mxGeometry x="0.2795" y="-2" relative="1" as="geometry">
            <mxPoint x="-23" y="1" as="offset" />
          </mxGeometry>
        </mxCell>
        <mxCell id="qwTyniUlubBgsxsKZxgI-14" value="" style="rounded=0;whiteSpace=wrap;html=1;" vertex="1" parent="1">
          <mxGeometry x="383" y="371.5" width="140" height="170" as="geometry" />
        </mxCell>
        <mxCell id="qwTyniUlubBgsxsKZxgI-1" value="Reporter" style="rounded=1;whiteSpace=wrap;html=1;fillColor=#f5f5f5;fontColor=#333333;strokeColor=#666666;" vertex="1" parent="1">
          <mxGeometry x="58" y="436" width="95" height="41" as="geometry" />
        </mxCell>
        <mxCell id="qwTyniUlubBgsxsKZxgI-10" style="edgeStyle=orthogonalEdgeStyle;rounded=0;orthogonalLoop=1;jettySize=auto;html=1;" edge="1" parent="1" source="qwTyniUlubBgsxsKZxgI-3" target="qwTyniUlubBgsxsKZxgI-1">
          <mxGeometry relative="1" as="geometry" />
        </mxCell>
        <mxCell id="qwTyniUlubBgsxsKZxgI-22" value="生成报告" style="edgeLabel;html=1;align=center;verticalAlign=middle;resizable=0;points=[];" vertex="1" connectable="0" parent="qwTyniUlubBgsxsKZxgI-10">
          <mxGeometry x="0.0395" y="1" relative="1" as="geometry">
            <mxPoint as="offset" />
          </mxGeometry>
        </mxCell>
        <mxCell id="qwTyniUlubBgsxsKZxgI-11" style="edgeStyle=orthogonalEdgeStyle;rounded=0;orthogonalLoop=1;jettySize=auto;html=1;" edge="1" parent="1" source="qwTyniUlubBgsxsKZxgI-3" target="qwTyniUlubBgsxsKZxgI-6">
          <mxGeometry relative="1" as="geometry" />
        </mxCell>
        <mxCell id="qwTyniUlubBgsxsKZxgI-23" value="深度研究" style="edgeLabel;html=1;align=center;verticalAlign=middle;resizable=0;points=[];" vertex="1" connectable="0" parent="qwTyniUlubBgsxsKZxgI-11">
          <mxGeometry x="0.0132" y="1" relative="1" as="geometry">
            <mxPoint y="1" as="offset" />
          </mxGeometry>
        </mxCell>
        <mxCell id="qwTyniUlubBgsxsKZxgI-24" style="edgeStyle=orthogonalEdgeStyle;rounded=0;orthogonalLoop=1;jettySize=auto;html=1;entryX=0;entryY=0.5;entryDx=0;entryDy=0;exitX=0;exitY=0.5;exitDx=0;exitDy=0;" edge="1" parent="1" source="qwTyniUlubBgsxsKZxgI-3" target="qwTyniUlubBgsxsKZxgI-4">
          <mxGeometry relative="1" as="geometry">
            <Array as="points">
              <mxPoint x="56" y="345" />
              <mxPoint x="56" y="257" />
            </Array>
          </mxGeometry>
        </mxCell>
        <mxCell id="qwTyniUlubBgsxsKZxgI-25" value="反馈" style="edgeLabel;html=1;align=center;verticalAlign=middle;resizable=0;points=[];" vertex="1" connectable="0" parent="qwTyniUlubBgsxsKZxgI-24">
          <mxGeometry x="-0.6957" y="-2" relative="1" as="geometry">
            <mxPoint y="2" as="offset" />
          </mxGeometry>
        </mxCell>
        <mxCell id="qwTyniUlubBgsxsKZxgI-3" value="Human_Feedback" style="rounded=1;whiteSpace=wrap;html=1;fillColor=#f5f5f5;fontColor=#333333;strokeColor=#666666;" vertex="1" parent="1">
          <mxGeometry x="127" y="324" width="119" height="41" as="geometry" />
        </mxCell>
        <mxCell id="qwTyniUlubBgsxsKZxgI-9" style="edgeStyle=orthogonalEdgeStyle;rounded=0;orthogonalLoop=1;jettySize=auto;html=1;" edge="1" parent="1" source="qwTyniUlubBgsxsKZxgI-4" target="qwTyniUlubBgsxsKZxgI-3">
          <mxGeometry relative="1" as="geometry" />
        </mxCell>
        <mxCell id="qwTyniUlubBgsxsKZxgI-4" value="Planner" style="rounded=1;whiteSpace=wrap;html=1;fillColor=#f5f5f5;fontColor=#333333;strokeColor=#666666;" vertex="1" parent="1">
          <mxGeometry x="127" y="236" width="119" height="41" as="geometry" />
        </mxCell>
        <mxCell id="qwTyniUlubBgsxsKZxgI-8" style="edgeStyle=orthogonalEdgeStyle;rounded=0;orthogonalLoop=1;jettySize=auto;html=1;" edge="1" parent="1" source="qwTyniUlubBgsxsKZxgI-5" target="qwTyniUlubBgsxsKZxgI-4">
          <mxGeometry relative="1" as="geometry" />
        </mxCell>
        <mxCell id="qwTyniUlubBgsxsKZxgI-5" value="Coordinator" style="rounded=1;whiteSpace=wrap;html=1;fillColor=#f5f5f5;fontColor=#333333;strokeColor=#666666;" vertex="1" parent="1">
          <mxGeometry x="127" y="147" width="119" height="41" as="geometry" />
        </mxCell>
        <mxCell id="qwTyniUlubBgsxsKZxgI-16" style="edgeStyle=orthogonalEdgeStyle;rounded=0;orthogonalLoop=1;jettySize=auto;html=1;entryX=0;entryY=0.5;entryDx=0;entryDy=0;" edge="1" parent="1" source="qwTyniUlubBgsxsKZxgI-6" target="qwTyniUlubBgsxsKZxgI-14">
          <mxGeometry relative="1" as="geometry" />
        </mxCell>
        <mxCell id="qwTyniUlubBgsxsKZxgI-6" value="Researcher" style="rounded=1;whiteSpace=wrap;html=1;fillColor=#f5f5f5;fontColor=#333333;strokeColor=#666666;" vertex="1" parent="1">
          <mxGeometry x="220" y="436" width="95" height="41" as="geometry" />
        </mxCell>
        <mxCell id="qwTyniUlubBgsxsKZxgI-12" value="tools" style="rounded=1;whiteSpace=wrap;html=1;fillColor=#fff2cc;strokeColor=#d6b656;" vertex="1" parent="1">
          <mxGeometry x="405.5" y="469.5" width="95" height="41" as="geometry" />
        </mxCell>
        <mxCell id="qwTyniUlubBgsxsKZxgI-13" value="Agent" style="rounded=1;whiteSpace=wrap;html=1;fillColor=#fff2cc;strokeColor=#d6b656;" vertex="1" parent="1">
          <mxGeometry x="405.5" y="398.5" width="95" height="41" as="geometry" />
        </mxCell>
        <mxCell id="qwTyniUlubBgsxsKZxgI-20" style="edgeStyle=orthogonalEdgeStyle;rounded=0;orthogonalLoop=1;jettySize=auto;html=1;entryX=0.5;entryY=0;entryDx=0;entryDy=0;" edge="1" parent="1" source="qwTyniUlubBgsxsKZxgI-19" target="qwTyniUlubBgsxsKZxgI-5">
          <mxGeometry relative="1" as="geometry" />
        </mxCell>
        <mxCell id="qwTyniUlubBgsxsKZxgI-19" value="user&lt;div&gt;&lt;br&gt;&lt;/div&gt;" style="shape=umlActor;verticalLabelPosition=bottom;verticalAlign=top;html=1;outlineConnect=0;" vertex="1" parent="1">
          <mxGeometry x="172" y="32" width="30" height="60" as="geometry" />
        </mxCell>
      </root>
    </mxGraphModel>
  </diagram>
</mxfile>
